<?xml version="1.0" standalone="no"?>
<!DOCTYPE svg PUBLIC "-//W3C//DTD SVG 20010904//EN"
 "http://www.w3.org/TR/2001/REC-SVG-20010904/DTD/svg10.dtd">
<svg version="1.0" xmlns="http://www.w3.org/2000/svg"
 width="880.000000pt" height="783.000000pt" viewBox="0 0 880.000000 783.000000"
 preserveAspectRatio="xMidYMid meet">

<g transform="translate(0.000000,783.000000) scale(0.100000,-0.100000)"
fill="#000000" stroke="none">
<path d="M4377 5789 c-59 -4 -155 -15 -215 -24 -261 -40 -362 -71 -1007 -310
-493 -182 -654 -212 -1255 -235 -627 -24 -1043 -116 -1454 -322 -88 -44 -276
-155 -276 -162 0 -2 17 -41 39 -87 94 -204 127 -371 100 -501 -17 -79 -41
-120 -109 -180 -33 -30 -60 -58 -60 -62 0 -4 28 -20 62 -36 109 -52 318 -90
593 -110 83 -5 174 -12 203 -14 28 -3 52 -3 52 0 0 2 -12 23 -27 46 -90 144
-133 342 -113 515 44 365 280 636 631 725 71 17 104 20 228 16 124 -4 158 -9
224 -32 269 -91 450 -272 543 -541 26 -74 28 -92 29 -235 0 -85 -3 -167 -8
-182 -7 -26 -11 -28 -57 -28 l-50 0 7 58 c15 112 8 252 -16 332 -74 245 -242
415 -496 501 -60 20 -89 24 -205 24 -121 0 -143 -3 -215 -28 -206 -71 -350
-193 -439 -372 -54 -109 -70 -182 -70 -325 -1 -103 3 -138 22 -200 52 -167
172 -324 324 -425 9 -5 81 -108 162 -227 l146 -217 -54 -80 c-299 -439 -536
-790 -536 -795 0 -3 1483 -6 3295 -6 1812 0 3295 3 3295 6 0 3 -109 166 -242
362 -133 196 -265 392 -294 435 l-53 77 116 173 c153 227 164 240 226 275 151
85 285 267 333 452 25 97 23 264 -5 363 -92 334 -404 555 -751 534 -221 -14
-417 -123 -546 -304 -117 -162 -153 -341 -122 -588 3 -17 -4 -20 -48 -23 l-51
-3 -11 70 c-41 243 40 505 211 687 111 120 274 214 424 248 91 20 284 21 376
1 307 -65 567 -328 632 -640 25 -123 17 -293 -21 -422 -6 -23 -6 -23 115 -23
l121 0 -30 56 c-32 60 -39 128 -20 178 5 15 45 63 87 109 171 181 271 322 358
502 59 123 129 315 115 315 -5 0 -83 11 -172 25 -767 115 -1712 200 -2468 221
l-235 6 -55 -40 c-65 -47 -154 -93 -230 -118 -52 -18 -119 -19 -1328 -22 -700
-1 -1279 1 -1287 5 -15 9 966 406 1105 447 82 25 235 54 390 75 164 23 472 31
745 21 526 -20 1048 -84 1765 -215 414 -76 996 -200 1525 -324 240 -56 250
-58 259 -39 6 11 6 22 0 27 -10 10 -509 126 -969 225 -1012 218 -1726 332
-2400 381 -210 16 -670 18 -858 4z m1661 -1616 l-3 -68 -30 1 c-16 1 -138 8
-270 15 -162 9 -456 14 -902 14 -365 -1 -663 3 -663 7 0 4 8 8 18 8 9 0 96 9
192 19 400 44 846 67 1333 69 l328 2 -3 -67z"/>
</g>
</svg>
